<?xml version="1.0" encoding="utf-8"?>
<!-- Generator: Adobe Illustrator 26.4.1, SVG Export Plug-In . SVG Version: 6.00 Build 0)  -->
<svg version="1.1" id="Layer_1" xmlns="http://www.w3.org/2000/svg" xmlns:xlink="http://www.w3.org/1999/xlink" x="0px" y="0px"
	 viewBox="0 0 1989.3 605.3" style="enable-background:new 0 0 1989.3 605.3;" xml:space="preserve">
<g>
	<path d="M636.9,186.2c5-8.5,4.8-19.2-0.6-27.5l-47.4-66.1c-4.8-7.4-13-11.8-21.8-11.8H286.4c-9.9,0-18.9,5.6-23.3,14.5L245,131.8
		c-4.9,9.8-76.2,156.5-120,251.3c-10.9-11-31.2-11.3-40.9,4.6l-34.8,56.7c-2.5,4.1-3.8,8.8-3.8,13.6v53.3c0,14.4,11.7,26,26,26
		h334.4c8.8,0,17-4.4,21.8-11.8l78-69.1L636.9,186.2z M427.3,367.8c-37.8,54.6-103.9,82.4-169.3,70.9c-20.3-3.5-40.8-7.6-59.2-11.9
		l296.3-271.5c6.8-0.4,13.6,1.9,18.7,6.4l19.3,16.8c13.5,11.8,8.9,21.6-4.2,42.3L427.3,367.8z"/>
	<path d="M783.6,98.2c-6.3-11.1-84.5-7.1-90.9,4L497.3,523.3c-6.3,11,1.7,24.7,14.4,24.7H576c6,0,11.5-3.2,14.4-8.4l34.4-60.9
		c2.9-5.2,8.4-8.4,14.4-8.4h210.3c6,0,11.4,3.2,14.4,8.4l34.6,61c2.9,5.2,8.4,8.4,14.4,8.4h63c12.7,0,20.6-13.7,14.4-24.7
		L783.6,98.2z M778.5,379h-69.2c-12.7,0-20.6-13.6-14.4-24.7l34.5-61.1c6.3-11.2,22.4-11.2,28.8,0l34.7,61.1
		C799.1,365.3,791.1,379,778.5,379z"/>
	<path d="M1209.8,98.5c-2.2-4.3-6.7-7-11.5-7l-118.1,0c-9.6,0-23.7,10.9-19.5,19.6l164.3,321.7c6.5,13.4-3.2,24.4-13.4,13.5
		L1023.4,95.7c-2.5-2.6-5.9-4.1-9.5-4.1l-190.6,0c-9.8,0-16.1,10.5-11.4,19.2l210.6,426.6c2.3,4.2,6.6,6.8,11.4,6.8l137.9,3.8
		c10.3,0,23.1-12.4,17.5-21.1l-163-295.9c-8.5-13.2,2.8-26.3,13.7-15l181.5,330c2.5,2.6,6,4,9.6,4l161.5-3.1
		c9.6-0.2,15.7-10.4,11.2-19L1209.8,98.5z"/>
	<path d="M1905.2,373c-0.9-0.5-1.9-0.8-2.9-1L1624,315.2c-0.7-0.1-1.4-0.3-2.1-0.6c-15.3-6.7-20.6-25-13-38.6c2.1-3.8,5.3-6.8,9-8.9
		l152.9-87.6c7.9-4.5,9.3-15.4,2.7-21.8l-66.3-64.2c-7.9-7.6-19.8-9.2-29.4-3.9l-204.2,113.9c-1.8,1-3.2,3-4.3,5.6l-52.9-109
		c0.2-5.8-4.2-11-10-11.4c-0.4,0-0.7,0-1.1,0l-152.8,2.9c-10,0-16.6,10.3-12.5,19.4l195.5,429c2.2,4.9,7.1,8,12.5,8h185
		c0.3,0,0.6,0,0.9,0c12.3-0.8,13.8-18.4,2-21.8l-7-2c-4.9-1.4-9-4.9-11.3-9.5l-35.6-73.3l309.2,77.1c8.6,2,16.8-4.6,16.8-13.4
		l4.3-120.1C1912.3,380,1909.6,375.4,1905.2,373z"/>
</g>
</svg>
